<svg width="20" height="20" viewBox="0 0 200 200" xmlns="http://www.w3.org/2000/svg" role="img" aria-hidden="true" focusable="false">
							<path d="M15.777,107.754c0-4.511,0-9.022,0-13.533c0.195-1.088,0.521-2.171,0.563-3.265
							c0.381-9.705,0.463-19.427,1.124-29.111c0.687-10.068,1.7-20.127,2.983-30.137c1.008-7.869,3.767-15.071,10.599-19.945
							c1.095-0.781,2.632-1.028,3.563-1.935c2.588-2.519,5.854-3.162,9.155-3.85c0.833-0.173,1.643-0.459,2.464-0.695
							c0.967,0,1.934,0,2.901,0c0.838,0.229,1.672,0.479,2.517,0.682c3.188,0.766,6.616,1.009,9.522,2.369
							c7.922,3.708,15.643,7.852,23.392,11.92c0.938,0.493,0.938,0.493,2.285,1.381c1.879,1.005,2.267,1.363,3.301,1.896
							c2.212,1.137,4.327,2.464,6.46,3.75c11.939,7.193,23.932,14.296,35.779,21.637c6.409,3.973,12.56,8.369,18.841,12.554
							c4.533,3.022,9.221,5.837,13.599,9.071c3.327,2.46,6.369,5.336,9.372,8.204c5.079,4.851,9.028,10.454,10.775,17.398
							c0.287,1.138,0.632,2.263,0.948,3.395c0,0.644,0,1.289,0,1.933c-0.332,1.482-0.637,2.969-1,4.442
							c-1.373,5.588-4.348,10.297-8.102,14.56c-2.799,3.177-3.489,3.3-7.052,0.986c-3.834-2.487-7.558-5.153-11.425-7.593
							c-4.648-2.939-9.445-5.647-14.092-8.592c-8.48-5.376-16.87-10.897-25.349-16.279c-12.447-7.899-24.927-15.748-37.42-23.572
							c-2.722-1.704-5.462-3.441-8.373-4.767c-5.533-2.521-13.792-0.311-16.803,4.301c-4.458,6.83-3.805,13.521,1.227,18.466
							c3.773,3.709,8.48,6.512,12.944,9.458c3.273,2.161,6.897,3.783,10.235,5.854c4.171,2.588,8.162,5.461,12.313,8.083
							c5.722,3.609,11.57,7.02,17.269,10.664c7.225,4.615,14.308,9.45,21.537,14.057c4.509,2.876,9.182,5.487,13.755,8.252
							c1.137,0.688,2.187,1.519,3.26,2.27c-0.229,0.369-0.278,0.557-0.402,0.634c-8.617,5.488-17.227,10.986-25.896,16.391
							c-0.53,0.33-1.691,0.15-2.295-0.22c-7.227-4.441-14.417-8.945-21.592-13.471c-7.745-4.884-15.55-9.681-23.171-14.755
							c-5.851-3.894-18.491-2.445-21.268,7.352c-1.512,5.34-0.435,12.463,5.056,16.384c2.964,2.116,6.26,3.765,9.351,5.714
							c6.436,4.06,12.835,8.174,19.25,12.266c1.786,1.138,3.575,2.272,5.662,3.601c-1.244,0.988-2.195,1.982-3.344,2.62
							c-6.961,3.862-13.946,7.688-20.966,11.439c-4.886,2.61-9.892,4.932-15.479,5.686c-1.398,0.188-2.758,0.652-4.136,0.99
							c-0.966,0-1.933,0-2.899,0c-1.391-0.29-2.779-0.597-4.174-0.87c-7.485-1.462-12.759-5.808-17.12-11.981
							c-2.081-2.945-3.366-5.934-4.125-9.279c-2.797-12.339-3.528-24.937-4.251-37.506c-0.508-8.823-0.461-17.675-0.708-26.515
							C16.31,109.607,15.971,108.684,15.777,107.754z"></path>
						</svg>